# xmcd CD database file
#
# Track frame offsets:
#	150
#	15146
#	31775
#	44180
#	56475
#	71899
#	89403
#	107363
#	119982
#	138915
#	153347
#	167833
#	183454
#	194946
#
# Disc length: 2740 seconds
#
# Revision: 1
# Processed by: cddbd v1.5.2PL0 Copyright (c) Steve Scherf et al.
# Submitted via: CDex 1.70beta2
#
DISCID=c80ab20e
DTITLE=Tom Astor - Volle Kraft Voraus
DYEAR=2014
DGENRE=Country
TTITLE0=Ich hab' im Leben nur Gas gegeben
TTITLE1=Wir woll'n leben, solange wir leben (Red River Rock)
TTITLE2=Du willst mich nicht verbiegen
TTITLE3=Mit voller Kraft vorraus
TTITLE4=Ja, dann ist Sommer
TTITLE5=Ich habe mir geschworen
TTITLE6=California Blue
TTITLE7=Alles ist möglich, alles ist drin
TTITLE8=Sonntagmorgen
TTITLE9=20 Minuten zu spät
TTITLE10=Der Macher
TTITLE11=Wieder mal Notstand
TTITLE12=Die Vernuft hat zu vieles verhindert
TTITLE13=Hallo Europa
EXTD=YEAR: 2014
EXTT0=
EXTT1=
EXTT2=
EXTT3=
EXTT4=
EXTT5=
EXTT6=
EXTT7=
EXTT8=
EXTT9=
EXTT10=
EXTT11=
EXTT12=
EXTT13=
PLAYORDER=
